<mxfile host="app.diagrams.net" agent="Mozilla/5.0 (Windows NT 10.0; Win64; x64) AppleWebKit/537.36 (KHTML, like Gecko) Chrome/131.0.0.0 Safari/537.36" modified="2024-11-26T12:44:45.265Z" version="23.1.2" etag="MBJlyzps58W6W7lVz57W" type="device">
  <diagram name="PÃ¡gina-1" id="LQh9wI3eWIkFYPQIn7XG">
    <mxGraphModel dx="2289" dy="586" grid="0" gridSize="10" guides="1" tooltips="1" connect="1" arrows="1" fold="1" page="1" pageScale="1" pageWidth="827" pageHeight="1169" math="0" shadow="0">
      <root>
        <mxCell id="0" />
        <mxCell id="1" parent="0" />
        <mxCell id="ffqDNrQPpVkjhxXdQdvi-1" value="" style="rounded=0;whiteSpace=wrap;html=1;" parent="1" vertex="1">
          <mxGeometry x="13" y="120" width="40" height="30" as="geometry" />
        </mxCell>
        <mxCell id="ffqDNrQPpVkjhxXdQdvi-2" value="R1" style="text;html=1;align=center;verticalAlign=middle;whiteSpace=wrap;rounded=0;" parent="1" vertex="1">
          <mxGeometry x="3" y="120" width="60" height="30" as="geometry" />
        </mxCell>
        <mxCell id="ffqDNrQPpVkjhxXdQdvi-3" value="" style="rounded=0;whiteSpace=wrap;html=1;" parent="1" vertex="1">
          <mxGeometry x="160" y="120" width="40" height="30" as="geometry" />
        </mxCell>
        <mxCell id="ffqDNrQPpVkjhxXdQdvi-35" style="edgeStyle=orthogonalEdgeStyle;rounded=0;orthogonalLoop=1;jettySize=auto;html=1;entryX=0.5;entryY=0;entryDx=0;entryDy=0;" parent="1" source="ffqDNrQPpVkjhxXdQdvi-4" target="ffqDNrQPpVkjhxXdQdvi-32" edge="1">
          <mxGeometry relative="1" as="geometry" />
        </mxCell>
        <mxCell id="bG3Kw9FMXJl8_q7Ywz87-5" value="&lt;font color=&quot;#3ab531&quot;&gt;-0.1925&lt;/font&gt;" style="edgeLabel;html=1;align=center;verticalAlign=middle;resizable=0;points=[];" parent="ffqDNrQPpVkjhxXdQdvi-35" vertex="1" connectable="0">
          <mxGeometry x="-0.0313" relative="1" as="geometry">
            <mxPoint as="offset" />
          </mxGeometry>
        </mxCell>
        <mxCell id="ffqDNrQPpVkjhxXdQdvi-4" value="R2" style="text;html=1;align=center;verticalAlign=middle;whiteSpace=wrap;rounded=0;" parent="1" vertex="1">
          <mxGeometry x="150" y="120" width="60" height="30" as="geometry" />
        </mxCell>
        <mxCell id="ffqDNrQPpVkjhxXdQdvi-5" value="" style="rounded=0;whiteSpace=wrap;html=1;" parent="1" vertex="1">
          <mxGeometry x="267" y="120" width="40" height="30" as="geometry" />
        </mxCell>
        <mxCell id="ffqDNrQPpVkjhxXdQdvi-6" value="R3" style="text;html=1;align=center;verticalAlign=middle;whiteSpace=wrap;rounded=0;" parent="1" vertex="1">
          <mxGeometry x="257" y="120" width="60" height="30" as="geometry" />
        </mxCell>
        <mxCell id="ffqDNrQPpVkjhxXdQdvi-13" value="&lt;span style=&quot;font-size:11.0pt;line-height:107%;&lt;br/&gt;font-family:&amp;quot;Aptos&amp;quot;,sans-serif;mso-ascii-theme-font:minor-latin;mso-fareast-font-family:&lt;br/&gt;Aptos;mso-fareast-theme-font:minor-latin;mso-hansi-theme-font:minor-latin;&lt;br/&gt;mso-bidi-font-family:&amp;quot;Times New Roman&amp;quot;;mso-bidi-theme-font:minor-bidi;&lt;br/&gt;mso-ansi-language:ES;mso-fareast-language:EN-US;mso-bidi-language:AR-SA&quot;&gt;seLevantaTiempo&lt;/span&gt;" style="text;html=1;align=center;verticalAlign=middle;whiteSpace=wrap;rounded=0;" parent="1" vertex="1">
          <mxGeometry x="3" y="50" width="60" height="20" as="geometry" />
        </mxCell>
        <mxCell id="ffqDNrQPpVkjhxXdQdvi-14" value="" style="endArrow=none;html=1;rounded=0;" parent="1" target="ffqDNrQPpVkjhxXdQdvi-13" edge="1">
          <mxGeometry width="50" height="50" relative="1" as="geometry">
            <mxPoint x="33" y="120" as="sourcePoint" />
            <mxPoint x="83" y="70" as="targetPoint" />
          </mxGeometry>
        </mxCell>
        <mxCell id="ffqDNrQPpVkjhxXdQdvi-15" value="FC=&amp;nbsp;" style="text;html=1;align=center;verticalAlign=middle;whiteSpace=wrap;rounded=0;" parent="1" vertex="1">
          <mxGeometry x="-27" y="30" width="30" height="20" as="geometry" />
        </mxCell>
        <mxCell id="ffqDNrQPpVkjhxXdQdvi-16" value="&lt;font color=&quot;#ff1c1c&quot;&gt;1&lt;/font&gt;" style="text;html=1;align=center;verticalAlign=middle;whiteSpace=wrap;rounded=0;" parent="1" vertex="1">
          <mxGeometry x="28" y="30" width="10" height="20" as="geometry" />
        </mxCell>
        <mxCell id="ffqDNrQPpVkjhxXdQdvi-19" value="&lt;span style=&quot;font-size:11.0pt;line-height:107%;&lt;br/&gt;font-family:&amp;quot;Aptos&amp;quot;,sans-serif;mso-ascii-theme-font:minor-latin;mso-fareast-font-family:&lt;br/&gt;Aptos;mso-fareast-theme-font:minor-latin;mso-hansi-theme-font:minor-latin;&lt;br/&gt;mso-bidi-font-family:&amp;quot;Times New Roman&amp;quot;;mso-bidi-theme-font:minor-bidi;&lt;br/&gt;mso-ansi-language:ES;mso-fareast-language:EN-US;mso-bidi-language:AR-SA&quot;&gt;seDucha&lt;br&gt;&lt;br&gt;&lt;/span&gt;" style="text;html=1;align=center;verticalAlign=middle;whiteSpace=wrap;rounded=0;" parent="1" vertex="1">
          <mxGeometry x="150" y="57" width="60" height="20" as="geometry" />
        </mxCell>
        <mxCell id="ffqDNrQPpVkjhxXdQdvi-20" value="&lt;font color=&quot;#ff1c1c&quot;&gt;0.35&lt;/font&gt;" style="text;html=1;align=center;verticalAlign=middle;whiteSpace=wrap;rounded=0;" parent="1" vertex="1">
          <mxGeometry x="175" y="30" width="10" height="20" as="geometry" />
        </mxCell>
        <mxCell id="ffqDNrQPpVkjhxXdQdvi-21" value="&lt;span style=&quot;font-size: 14.6667px;&quot;&gt;desayuna&lt;/span&gt;" style="text;html=1;align=center;verticalAlign=middle;whiteSpace=wrap;rounded=0;" parent="1" vertex="1">
          <mxGeometry x="237" y="50" width="60" height="20" as="geometry" />
        </mxCell>
        <mxCell id="ffqDNrQPpVkjhxXdQdvi-22" value="&lt;font color=&quot;#ff1c1c&quot;&gt;1&lt;/font&gt;" style="text;html=1;align=center;verticalAlign=middle;whiteSpace=wrap;rounded=0;" parent="1" vertex="1">
          <mxGeometry x="265" y="30" width="10" height="20" as="geometry" />
        </mxCell>
        <mxCell id="ffqDNrQPpVkjhxXdQdvi-24" value="" style="endArrow=none;html=1;rounded=0;" parent="1" edge="1">
          <mxGeometry width="50" height="50" relative="1" as="geometry">
            <mxPoint x="179.8" y="120" as="sourcePoint" />
            <mxPoint x="179.8" y="70" as="targetPoint" />
          </mxGeometry>
        </mxCell>
        <mxCell id="ffqDNrQPpVkjhxXdQdvi-25" value="" style="endArrow=none;html=1;rounded=0;entryX=0.5;entryY=1;entryDx=0;entryDy=0;" parent="1" edge="1" target="ffqDNrQPpVkjhxXdQdvi-21">
          <mxGeometry width="50" height="50" relative="1" as="geometry">
            <mxPoint x="286.8" y="120" as="sourcePoint" />
            <mxPoint x="286.8" y="70" as="targetPoint" />
          </mxGeometry>
        </mxCell>
        <mxCell id="ffqDNrQPpVkjhxXdQdvi-27" value="FC=&amp;nbsp;" style="text;html=1;align=center;verticalAlign=middle;whiteSpace=wrap;rounded=0;" parent="1" vertex="1">
          <mxGeometry x="-47" y="125" width="30" height="20" as="geometry" />
        </mxCell>
        <mxCell id="ffqDNrQPpVkjhxXdQdvi-28" value="0.4" style="text;html=1;align=center;verticalAlign=middle;whiteSpace=wrap;rounded=0;" parent="1" vertex="1">
          <mxGeometry x="-7" y="125" width="10" height="20" as="geometry" />
        </mxCell>
        <mxCell id="ffqDNrQPpVkjhxXdQdvi-29" value="&amp;nbsp;-0.55" style="text;html=1;align=center;verticalAlign=middle;whiteSpace=wrap;rounded=0;" parent="1" vertex="1">
          <mxGeometry x="120" y="126.25" width="40" height="17.5" as="geometry" />
        </mxCell>
        <mxCell id="ffqDNrQPpVkjhxXdQdvi-31" value="&amp;nbsp;-0.6" style="text;html=1;align=center;verticalAlign=middle;whiteSpace=wrap;rounded=0;" parent="1" vertex="1">
          <mxGeometry x="210" y="126.25" width="40" height="17.5" as="geometry" />
        </mxCell>
        <mxCell id="ffqDNrQPpVkjhxXdQdvi-32" value="&lt;span style=&quot;font-size:11.0pt;line-height:107%;&lt;br/&gt;font-family:&amp;quot;Aptos&amp;quot;,sans-serif;mso-ascii-theme-font:minor-latin;mso-fareast-font-family:&lt;br/&gt;Aptos;mso-fareast-theme-font:minor-latin;mso-hansi-theme-font:minor-latin;&lt;br/&gt;mso-bidi-font-family:&amp;quot;Times New Roman&amp;quot;;mso-bidi-theme-font:minor-bidi;&lt;br/&gt;mso-ansi-language:ES;mso-fareast-language:EN-US;mso-bidi-language:AR-SA&quot;&gt;saleTempranoCasa&lt;/span&gt;" style="text;html=1;align=center;verticalAlign=middle;whiteSpace=wrap;rounded=0;" parent="1" vertex="1">
          <mxGeometry x="150" y="230" width="60" height="20" as="geometry" />
        </mxCell>
        <mxCell id="ffqDNrQPpVkjhxXdQdvi-34" value="" style="endArrow=classic;html=1;rounded=0;entryX=0.332;entryY=-0.079;entryDx=0;entryDy=0;entryPerimeter=0;exitX=0.5;exitY=1;exitDx=0;exitDy=0;" parent="1" target="ffqDNrQPpVkjhxXdQdvi-32" edge="1" source="ffqDNrQPpVkjhxXdQdvi-2">
          <mxGeometry width="50" height="50" relative="1" as="geometry">
            <mxPoint x="95" y="150" as="sourcePoint" />
            <mxPoint x="180" y="220" as="targetPoint" />
          </mxGeometry>
        </mxCell>
        <mxCell id="bG3Kw9FMXJl8_q7Ywz87-4" value="&lt;font color=&quot;#3ab531&quot;&gt;0.4&lt;/font&gt;" style="edgeLabel;html=1;align=center;verticalAlign=middle;resizable=0;points=[];" parent="ffqDNrQPpVkjhxXdQdvi-34" vertex="1" connectable="0">
          <mxGeometry x="-0.0442" relative="1" as="geometry">
            <mxPoint as="offset" />
          </mxGeometry>
        </mxCell>
        <mxCell id="ffqDNrQPpVkjhxXdQdvi-36" value="" style="endArrow=classic;html=1;rounded=0;" parent="1" edge="1">
          <mxGeometry width="50" height="50" relative="1" as="geometry">
            <mxPoint x="275" y="150" as="sourcePoint" />
            <mxPoint x="190" y="227" as="targetPoint" />
          </mxGeometry>
        </mxCell>
        <mxCell id="bG3Kw9FMXJl8_q7Ywz87-6" value="&lt;font color=&quot;#3ab531&quot;&gt;-0.6&lt;/font&gt;" style="edgeLabel;html=1;align=center;verticalAlign=middle;resizable=0;points=[];" parent="ffqDNrQPpVkjhxXdQdvi-36" vertex="1" connectable="0">
          <mxGeometry x="0.0414" y="-2" relative="1" as="geometry">
            <mxPoint as="offset" />
          </mxGeometry>
        </mxCell>
        <mxCell id="bG3Kw9FMXJl8_q7Ywz87-15" value="Red de inferencia&lt;div&gt;&lt;br&gt;&lt;/div&gt;" style="text;html=1;align=center;verticalAlign=middle;resizable=0;points=[];autosize=1;strokeColor=none;fillColor=none;" parent="1" vertex="1">
          <mxGeometry x="287" width="112" height="41" as="geometry" />
        </mxCell>
        <mxCell id="SZBWbhoo6G_GsIJG_lza-1" value="" style="endArrow=none;html=1;rounded=0;" edge="1" parent="1">
          <mxGeometry width="50" height="50" relative="1" as="geometry">
            <mxPoint x="288" y="120" as="sourcePoint" />
            <mxPoint x="327" y="70" as="targetPoint" />
          </mxGeometry>
        </mxCell>
        <mxCell id="SZBWbhoo6G_GsIJG_lza-2" value="&lt;span style=&quot;font-size: 14.6667px;&quot;&gt;lavaDientes&lt;/span&gt;" style="text;html=1;align=center;verticalAlign=middle;whiteSpace=wrap;rounded=0;" vertex="1" parent="1">
          <mxGeometry x="313" y="52" width="60" height="20" as="geometry" />
        </mxCell>
        <mxCell id="SZBWbhoo6G_GsIJG_lza-3" value="" style="rounded=0;whiteSpace=wrap;html=1;" vertex="1" parent="1">
          <mxGeometry x="493" y="120" width="40" height="30" as="geometry" />
        </mxCell>
        <mxCell id="SZBWbhoo6G_GsIJG_lza-4" style="edgeStyle=orthogonalEdgeStyle;rounded=0;orthogonalLoop=1;jettySize=auto;html=1;entryX=0.5;entryY=0;entryDx=0;entryDy=0;" edge="1" parent="1" source="SZBWbhoo6G_GsIJG_lza-6" target="SZBWbhoo6G_GsIJG_lza-11">
          <mxGeometry relative="1" as="geometry" />
        </mxCell>
        <mxCell id="SZBWbhoo6G_GsIJG_lza-5" value="&lt;font color=&quot;#3ab531&quot;&gt;-0.1925&lt;/font&gt;" style="edgeLabel;html=1;align=center;verticalAlign=middle;resizable=0;points=[];" vertex="1" connectable="0" parent="SZBWbhoo6G_GsIJG_lza-4">
          <mxGeometry x="-0.0313" relative="1" as="geometry">
            <mxPoint as="offset" />
          </mxGeometry>
        </mxCell>
        <mxCell id="SZBWbhoo6G_GsIJG_lza-6" value="R4" style="text;html=1;align=center;verticalAlign=middle;whiteSpace=wrap;rounded=0;" vertex="1" parent="1">
          <mxGeometry x="483" y="120" width="60" height="30" as="geometry" />
        </mxCell>
        <mxCell id="SZBWbhoo6G_GsIJG_lza-7" value="&lt;span style=&quot;font-size:11.0pt;line-height:107%;&lt;br/&gt;font-family:&amp;quot;Aptos&amp;quot;,sans-serif;mso-ascii-theme-font:minor-latin;mso-fareast-font-family:&lt;br/&gt;Aptos;mso-fareast-theme-font:minor-latin;mso-hansi-theme-font:minor-latin;&lt;br/&gt;mso-bidi-font-family:&amp;quot;Times New Roman&amp;quot;;mso-bidi-theme-font:minor-bidi;&lt;br/&gt;mso-ansi-language:ES;mso-fareast-language:EN-US;mso-bidi-language:AR-SA&quot;&gt;busPuntualParadaAnterior&lt;br&gt;&lt;/span&gt;" style="text;html=1;align=center;verticalAlign=middle;whiteSpace=wrap;rounded=0;" vertex="1" parent="1">
          <mxGeometry x="483" y="57" width="60" height="20" as="geometry" />
        </mxCell>
        <mxCell id="SZBWbhoo6G_GsIJG_lza-8" value="&lt;font color=&quot;#ff1c1c&quot;&gt;0.35&lt;/font&gt;" style="text;html=1;align=center;verticalAlign=middle;whiteSpace=wrap;rounded=0;" vertex="1" parent="1">
          <mxGeometry x="508" y="30" width="10" height="20" as="geometry" />
        </mxCell>
        <mxCell id="SZBWbhoo6G_GsIJG_lza-9" value="" style="endArrow=none;html=1;rounded=0;" edge="1" parent="1">
          <mxGeometry width="50" height="50" relative="1" as="geometry">
            <mxPoint x="512.8" y="120" as="sourcePoint" />
            <mxPoint x="512.8" y="70" as="targetPoint" />
          </mxGeometry>
        </mxCell>
        <mxCell id="SZBWbhoo6G_GsIJG_lza-10" value="&amp;nbsp;-0.6" style="text;html=1;align=center;verticalAlign=middle;whiteSpace=wrap;rounded=0;" vertex="1" parent="1">
          <mxGeometry x="543" y="126.25" width="40" height="17.5" as="geometry" />
        </mxCell>
        <mxCell id="SZBWbhoo6G_GsIJG_lza-11" value="&lt;span style=&quot;font-size: 14.6667px;&quot;&gt;busPuntual&lt;/span&gt;" style="text;html=1;align=center;verticalAlign=middle;whiteSpace=wrap;rounded=0;" vertex="1" parent="1">
          <mxGeometry x="483" y="230" width="60" height="20" as="geometry" />
        </mxCell>
        <mxCell id="SZBWbhoo6G_GsIJG_lza-12" value="&lt;font color=&quot;#3ab531&quot;&gt;-0.6&lt;/font&gt;" style="edgeLabel;html=1;align=center;verticalAlign=middle;resizable=0;points=[];" vertex="1" connectable="0" parent="1">
          <mxGeometry x="562.1899095060953" y="188.79994341413715" as="geometry" />
        </mxCell>
        <mxCell id="SZBWbhoo6G_GsIJG_lza-14" value="&lt;div style=&quot;border-color: var(--border-color); color: rgb(97, 97, 97); font-family: -apple-system, BlinkMacSystemFont, &amp;quot;Segoe UI Variable&amp;quot;, &amp;quot;Segoe UI&amp;quot;, system-ui, ui-sans-serif, Helvetica, Arial, sans-serif, &amp;quot;Apple Color Emoji&amp;quot;, &amp;quot;Segoe UI Emoji&amp;quot;; font-size: 12px; font-style: normal; font-variant-ligatures: normal; font-variant-caps: normal; font-weight: 400; letter-spacing: normal; orphans: 2; text-align: left; text-indent: 0px; text-transform: none; widows: 2; word-spacing: 0px; -webkit-text-stroke-width: 0px; white-space: nowrap; background-color: rgb(241, 243, 244); text-decoration-thickness: initial; text-decoration-style: initial; text-decoration-color: initial; padding: 5px 0px 1px; overflow: hidden; width: 200px; height: 18px;&quot;&gt;&lt;input style=&quot;border: 1px solid rgb(216, 216, 216); font-size: inherit; border-radius: 4px; margin: 1px 6px 0px 0px; vertical-align: top;&quot; type=&quot;checkbox&quot;&gt;&lt;span style=&quot;border-color: var(--border-color); vertical-align: top;&quot;&gt;Color de fondo&lt;/span&gt;&lt;input style=&quot;border: none; font-size: inherit; border-radius: 4px; position: relative; visibility: hidden; top: 10px; width: 0px; height: 0px;&quot; type=&quot;color&quot;&gt;&lt;/div&gt;&lt;div style=&quot;border-color: var(--border-color); color: rgb(97, 97, 97); font-family: -apple-system, BlinkMacSystemFont, &amp;quot;Segoe UI Variable&amp;quot;, &amp;quot;Segoe UI&amp;quot;, system-ui, ui-sans-serif, Helvetica, Arial, sans-serif, &amp;quot;Apple Color Emoji&amp;quot;, &amp;quot;Segoe UI Emoji&amp;quot;; font-size: 12px; font-style: normal; font-variant-ligatures: normal; font-variant-caps: normal; font-weight: 400; letter-spacing: normal; orphans: 2; text-align: left; text-indent: 0px; text-transform: none; widows: 2; word-spacing: 0px; -webkit-text-stroke-width: 0px; white-space: nowrap; background-color: rgb(241, 243, 244); text-decoration-thickness: initial; text-decoration-style: initial; text-decoration-color: initial; display: inline-flex; align-items: center; padding: 3px 0px; height: 18px; width: 100px; max-width: 100px; margin-right: 4px;&quot;&gt;&lt;br class=&quot;Apple-interchange-newline&quot;&gt;&lt;/div&gt;" style="text;whiteSpace=wrap;html=1;" vertex="1" parent="1">
          <mxGeometry x="952.0743534482758" y="16.352909482758662" width="228" height="70" as="geometry" />
        </mxCell>
        <mxCell id="SZBWbhoo6G_GsIJG_lza-15" value="" style="rounded=0;whiteSpace=wrap;html=1;" vertex="1" parent="1">
          <mxGeometry x="160" y="302" width="40" height="30" as="geometry" />
        </mxCell>
        <mxCell id="SZBWbhoo6G_GsIJG_lza-18" value="R2" style="text;html=1;align=center;verticalAlign=middle;whiteSpace=wrap;rounded=0;" vertex="1" parent="1">
          <mxGeometry x="150" y="302" width="60" height="30" as="geometry" />
        </mxCell>
        <mxCell id="SZBWbhoo6G_GsIJG_lza-21" value="" style="endArrow=none;html=1;rounded=0;" edge="1" parent="1">
          <mxGeometry width="50" height="50" relative="1" as="geometry">
            <mxPoint x="179.8" y="302" as="sourcePoint" />
            <mxPoint x="179.8" y="252" as="targetPoint" />
          </mxGeometry>
        </mxCell>
        <mxCell id="SZBWbhoo6G_GsIJG_lza-23" value="&lt;span style=&quot;font-size:11.0pt;line-height:107%;&lt;br/&gt;font-family:&amp;quot;Aptos&amp;quot;,sans-serif;mso-ascii-theme-font:minor-latin;mso-fareast-font-family:&lt;br/&gt;Aptos;mso-fareast-theme-font:minor-latin;mso-hansi-theme-font:minor-latin;&lt;br/&gt;mso-bidi-font-family:&amp;quot;Times New Roman&amp;quot;;mso-bidi-theme-font:minor-bidi;&lt;br/&gt;mso-ansi-language:ES;mso-fareast-language:EN-US;mso-bidi-language:AR-SA&quot;&gt;cogeBus&lt;/span&gt;" style="text;html=1;align=center;verticalAlign=middle;whiteSpace=wrap;rounded=0;" vertex="1" parent="1">
          <mxGeometry x="294" y="411" width="60" height="20" as="geometry" />
        </mxCell>
        <mxCell id="SZBWbhoo6G_GsIJG_lza-39" value="" style="rounded=0;whiteSpace=wrap;html=1;" vertex="1" parent="1">
          <mxGeometry x="309" y="302" width="40" height="30" as="geometry" />
        </mxCell>
        <mxCell id="SZBWbhoo6G_GsIJG_lza-42" value="R2" style="text;html=1;align=center;verticalAlign=middle;whiteSpace=wrap;rounded=0;" vertex="1" parent="1">
          <mxGeometry x="299" y="302" width="60" height="30" as="geometry" />
        </mxCell>
        <mxCell id="SZBWbhoo6G_GsIJG_lza-43" value="&lt;span style=&quot;font-size:11.0pt;line-height:107%;&lt;br/&gt;font-family:&amp;quot;Aptos&amp;quot;,sans-serif;mso-ascii-theme-font:minor-latin;mso-fareast-font-family:&lt;br/&gt;Aptos;mso-fareast-theme-font:minor-latin;mso-hansi-theme-font:minor-latin;&lt;br/&gt;mso-bidi-font-family:&amp;quot;Times New Roman&amp;quot;;mso-bidi-theme-font:minor-bidi;&lt;br/&gt;mso-ansi-language:ES;mso-fareast-language:EN-US;mso-bidi-language:AR-SA&quot;&gt;hayEspacio&lt;br&gt;&lt;/span&gt;" style="text;html=1;align=center;verticalAlign=middle;whiteSpace=wrap;rounded=0;" vertex="1" parent="1">
          <mxGeometry x="299" y="239" width="60" height="20" as="geometry" />
        </mxCell>
        <mxCell id="SZBWbhoo6G_GsIJG_lza-44" value="&lt;font color=&quot;#ff1c1c&quot;&gt;0.35&lt;/font&gt;" style="text;html=1;align=center;verticalAlign=middle;whiteSpace=wrap;rounded=0;" vertex="1" parent="1">
          <mxGeometry x="324" y="212" width="10" height="20" as="geometry" />
        </mxCell>
        <mxCell id="SZBWbhoo6G_GsIJG_lza-45" value="" style="endArrow=none;html=1;rounded=0;" edge="1" parent="1">
          <mxGeometry width="50" height="50" relative="1" as="geometry">
            <mxPoint x="328.8" y="302" as="sourcePoint" />
            <mxPoint x="328.8" y="252" as="targetPoint" />
          </mxGeometry>
        </mxCell>
        <mxCell id="SZBWbhoo6G_GsIJG_lza-48" value="&lt;font color=&quot;#3ab531&quot;&gt;-0.6&lt;/font&gt;" style="edgeLabel;html=1;align=center;verticalAlign=middle;resizable=0;points=[];" vertex="1" connectable="0" parent="1">
          <mxGeometry x="378.1899095060953" y="370.79994341413715" as="geometry" />
        </mxCell>
        <mxCell id="SZBWbhoo6G_GsIJG_lza-50" value="" style="endArrow=classic;html=1;rounded=0;entryX=0.586;entryY=0.088;entryDx=0;entryDy=0;entryPerimeter=0;" edge="1" parent="1" target="SZBWbhoo6G_GsIJG_lza-23">
          <mxGeometry width="50" height="50" relative="1" as="geometry">
            <mxPoint x="328.5" y="335" as="sourcePoint" />
            <mxPoint x="245.5" y="394" as="targetPoint" />
          </mxGeometry>
        </mxCell>
        <mxCell id="SZBWbhoo6G_GsIJG_lza-51" value="" style="endArrow=classic;html=1;rounded=0;entryX=1;entryY=0;entryDx=0;entryDy=0;exitX=0.5;exitY=1;exitDx=0;exitDy=0;" edge="1" parent="1" source="SZBWbhoo6G_GsIJG_lza-59" target="SZBWbhoo6G_GsIJG_lza-23">
          <mxGeometry width="50" height="50" relative="1" as="geometry">
            <mxPoint x="438" y="338" as="sourcePoint" />
            <mxPoint x="378.19" y="329" as="targetPoint" />
          </mxGeometry>
        </mxCell>
        <mxCell id="SZBWbhoo6G_GsIJG_lza-56" value="" style="endArrow=classic;html=1;rounded=0;entryX=0.25;entryY=0;entryDx=0;entryDy=0;" edge="1" parent="1" target="SZBWbhoo6G_GsIJG_lza-23">
          <mxGeometry width="50" height="50" relative="1" as="geometry">
            <mxPoint x="179.19" y="332" as="sourcePoint" />
            <mxPoint x="229.19" y="282" as="targetPoint" />
          </mxGeometry>
        </mxCell>
        <mxCell id="SZBWbhoo6G_GsIJG_lza-58" value="" style="rounded=0;whiteSpace=wrap;html=1;" vertex="1" parent="1">
          <mxGeometry x="493" y="299" width="40" height="30" as="geometry" />
        </mxCell>
        <mxCell id="SZBWbhoo6G_GsIJG_lza-59" value="R2" style="text;html=1;align=center;verticalAlign=middle;whiteSpace=wrap;rounded=0;" vertex="1" parent="1">
          <mxGeometry x="483" y="299" width="60" height="30" as="geometry" />
        </mxCell>
        <mxCell id="SZBWbhoo6G_GsIJG_lza-61" value="" style="endArrow=none;html=1;rounded=0;exitX=0.5;exitY=0;exitDx=0;exitDy=0;entryX=0.5;entryY=1;entryDx=0;entryDy=0;" edge="1" parent="1" source="SZBWbhoo6G_GsIJG_lza-59" target="SZBWbhoo6G_GsIJG_lza-11">
          <mxGeometry width="50" height="50" relative="1" as="geometry">
            <mxPoint x="468" y="299" as="sourcePoint" />
            <mxPoint x="518" y="249" as="targetPoint" />
          </mxGeometry>
        </mxCell>
        <mxCell id="SZBWbhoo6G_GsIJG_lza-62" value="" style="rounded=0;whiteSpace=wrap;html=1;" vertex="1" parent="1">
          <mxGeometry x="412" y="486" width="40" height="30" as="geometry" />
        </mxCell>
        <mxCell id="SZBWbhoo6G_GsIJG_lza-63" value="R2" style="text;html=1;align=center;verticalAlign=middle;whiteSpace=wrap;rounded=0;" vertex="1" parent="1">
          <mxGeometry x="402" y="486" width="60" height="30" as="geometry" />
        </mxCell>
        <mxCell id="SZBWbhoo6G_GsIJG_lza-71" value="llegaTiempoExamen" style="text;html=1;align=center;verticalAlign=middle;resizable=0;points=[];autosize=1;strokeColor=none;fillColor=none;" vertex="1" parent="1">
          <mxGeometry x="397" y="598" width="127" height="26" as="geometry" />
        </mxCell>
        <mxCell id="SZBWbhoo6G_GsIJG_lza-75" value="" style="endArrow=classic;html=1;rounded=0;exitX=0.5;exitY=1;exitDx=0;exitDy=0;" edge="1" parent="1" source="SZBWbhoo6G_GsIJG_lza-63">
          <mxGeometry width="50" height="50" relative="1" as="geometry">
            <mxPoint x="531.19" y="511" as="sourcePoint" />
            <mxPoint x="458" y="593" as="targetPoint" />
          </mxGeometry>
        </mxCell>
        <mxCell id="SZBWbhoo6G_GsIJG_lza-76" value="busPuntual" style="text;html=1;align=center;verticalAlign=middle;resizable=0;points=[];autosize=1;strokeColor=none;fillColor=none;" vertex="1" parent="1">
          <mxGeometry x="493" y="405" width="78" height="26" as="geometry" />
        </mxCell>
        <mxCell id="SZBWbhoo6G_GsIJG_lza-77" value="" style="rounded=0;whiteSpace=wrap;html=1;" vertex="1" parent="1">
          <mxGeometry x="621" y="483" width="40" height="30" as="geometry" />
        </mxCell>
        <mxCell id="SZBWbhoo6G_GsIJG_lza-78" value="R2" style="text;html=1;align=center;verticalAlign=middle;whiteSpace=wrap;rounded=0;" vertex="1" parent="1">
          <mxGeometry x="611" y="483" width="60" height="30" as="geometry" />
        </mxCell>
        <mxCell id="SZBWbhoo6G_GsIJG_lza-79" value="" style="endArrow=none;html=1;rounded=0;" edge="1" parent="1">
          <mxGeometry width="50" height="50" relative="1" as="geometry">
            <mxPoint x="640.8" y="483" as="sourcePoint" />
            <mxPoint x="640.8" y="433" as="targetPoint" />
          </mxGeometry>
        </mxCell>
        <mxCell id="SZBWbhoo6G_GsIJG_lza-80" value="" style="endArrow=classic;html=1;rounded=0;entryX=0.484;entryY=-0.123;entryDx=0;entryDy=0;entryPerimeter=0;" edge="1" parent="1" target="SZBWbhoo6G_GsIJG_lza-71">
          <mxGeometry width="50" height="50" relative="1" as="geometry">
            <mxPoint x="640.19" y="513" as="sourcePoint" />
            <mxPoint x="567" y="595" as="targetPoint" />
          </mxGeometry>
        </mxCell>
        <mxCell id="SZBWbhoo6G_GsIJG_lza-81" value="hayAtasco" style="text;html=1;align=center;verticalAlign=middle;resizable=0;points=[];autosize=1;strokeColor=none;fillColor=none;" vertex="1" parent="1">
          <mxGeometry x="604" y="407" width="74" height="26" as="geometry" />
        </mxCell>
        <mxCell id="SZBWbhoo6G_GsIJG_lza-82" value="" style="ellipse;whiteSpace=wrap;html=1;" vertex="1" parent="1">
          <mxGeometry x="50" y="516" width="80" height="80" as="geometry" />
        </mxCell>
        <mxCell id="SZBWbhoo6G_GsIJG_lza-85" value="" style="shape=requiredInterface;html=1;verticalLabelPosition=bottom;sketch=0;rotation=-90;" vertex="1" parent="1">
          <mxGeometry x="415.5" y="406.5" width="27.5" height="88.5" as="geometry" />
        </mxCell>
        <mxCell id="SZBWbhoo6G_GsIJG_lza-86" value="" style="endArrow=none;html=1;rounded=0;exitX=0.5;exitY=0;exitDx=0;exitDy=0;" edge="1" parent="1" source="SZBWbhoo6G_GsIJG_lza-63">
          <mxGeometry width="50" height="50" relative="1" as="geometry">
            <mxPoint x="275" y="479" as="sourcePoint" />
            <mxPoint x="325" y="429" as="targetPoint" />
          </mxGeometry>
        </mxCell>
        <mxCell id="SZBWbhoo6G_GsIJG_lza-87" value="" style="endArrow=none;html=1;rounded=0;" edge="1" parent="1">
          <mxGeometry width="50" height="50" relative="1" as="geometry">
            <mxPoint x="433" y="485" as="sourcePoint" />
            <mxPoint x="533" y="425" as="targetPoint" />
          </mxGeometry>
        </mxCell>
      </root>
    </mxGraphModel>
  </diagram>
</mxfile>
